<svg width="17.058105" height="17.058105" viewBox="0 0 17.0581 17.0581" fill="none" xmlns="http://www.w3.org/2000/svg" xmlns:xlink="http://www.w3.org/1999/xlink">
	<desc>
			Created with Pixso.
	</desc>
	<defs/>
	<path id="icon" d="M12.5005 11.0005L11.7104 11.0005L11.4307 10.7305C12.6309 9.33057 13.2505 7.42041 12.9106 5.39062C12.4404 2.61084 10.1206 0.390625 7.3208 0.0507812C3.09082 -0.469238 -0.469238 3.09082 0.0507812 7.3208C0.390625 10.1206 2.61084 12.4404 5.39062 12.9106C7.42041 13.2505 9.33057 12.6309 10.7305 11.4307L11.0005 11.7104L11.0005 12.5005L15.2607 16.7505C15.6704 17.1606 16.3306 17.1606 16.7407 16.7505L16.7505 16.7407C17.1606 16.3306 17.1606 15.6704 16.7505 15.2607L12.5005 11.0005ZM2.00049 6.50049C2.00049 8.99072 4.01074 11.0005 6.50049 11.0005C8.99072 11.0005 11.0005 8.99072 11.0005 6.50049C11.0005 4.01074 8.99072 2.00049 6.50049 2.00049C4.01074 2.00049 2.00049 4.01074 2.00049 6.50049Z" clip-rule="evenodd" fill="#FFFFFF" fill-opacity="1.000000" fill-rule="evenodd"/>
</svg>
