<svg width="16.071548" height="16.071533" viewBox="0 0 16.0715 16.0715" fill="none" xmlns="http://www.w3.org/2000/svg" xmlns:xlink="http://www.w3.org/1999/xlink">
	<desc>
			Created with Pixso.
	</desc>
	<defs/>
	<path id="icon" d="M9.57214 8.03589L15.7787 14.2422C16.1692 14.6328 16.1692 15.2659 15.7787 15.6565L15.6565 15.7786C15.266 16.1692 14.6328 16.1692 14.2423 15.7786L8.03578 9.57202L1.82925 15.7786C1.43874 16.1692 0.805573 16.1692 0.415039 15.7786L0.292892 15.6565C-0.0976257 15.2659 -0.0976257 14.6328 0.292892 14.2422L6.49942 8.03589L0.292892 1.82935C-0.0976257 1.43872 -0.0976257 0.805664 0.292892 0.415039L0.415039 0.292969C0.805573 -0.0976562 1.43874 -0.0976562 1.82925 0.292969L8.03578 6.49951L14.2423 0.292969C14.6328 -0.0976562 15.266 -0.0976562 15.6565 0.292969L15.7787 0.415039C16.1692 0.805664 16.1692 1.43872 15.7787 1.82935L9.57214 8.03589Z" clip-rule="evenodd" fill="#FFFFFF" fill-opacity="1.000000" fill-rule="evenodd"/>
</svg>
